# xmcd
#
# Track frame offsets:
#	182
#	27875
#	58365
#	77457
#	113002
#	141222
#	188282
#
# Disc length: 3062 seconds
#
# Revision: 0
# Processed by: cddbd v1.4PL0 Copyright (c) Steve Scherf et al.
# Submitted via: audiograbber 1.80.04
#
DISCID=500bf407
DTITLE=François Taschereau - Sens Tu Mon Âme
DYEAR=1900
DGENRE=Pop
TTITLE0=Première Neige 
TTITLE1=Triste Doux
TTITLE2=Je Thème
TTITLE3=Frisco
TTITLE4=Égoiste
TTITLE5=Confuse
TTITLE6=Un Baiser
EXTD=
EXTT0=
EXTT1=
EXTT2=
EXTT3=
EXTT4=
EXTT5=
EXTT6=
PLAYORDER=
